<svg xmlns="http://www.w3.org/2000/svg" id="graphic" width="1035" height="455"><g id="facets"><g class="facet" transform="translate(10,0)" opacity="1"><rect class="facet-title-bg" height="0" fill="#eeeeee" x="0" y="0" clip-path="url(#facet-clip-0)"/><text class="facet-title" y="0" font-size="17.5px" font-weight="bold" dx="0" x="0" fill="#333333" clip-path="url(#facet-clip-0)" opacity="0"/><g class="plot"><clipPath class="facet-clip" id="facet-clip-0"><rect width="1029" height="462" transform="translate(-7,-21)"/></clipPath><g class="bg"><rect fill="none" width="1015" height="420" style="fill: none;"/></g><g class="interaction"><g class="series"/><g class="series"/></g><g class="axes"><g class="y axis" fill="none" font-size="10" font-family="sans-serif" text-anchor="end" style="font-family: &quot;Source Sans Pro&quot;;"><path class="domain" stroke="#eeeeee" d="M0.5,420.5V0.5" stroke-dasharray="0" style="visibility: hidden;"/><g class="tick" opacity="1" transform="translate(0,394.14688128772633)" style="visibility: visible;"><line stroke="#eeeeee" x2="0" stroke-dasharray="0"/><text fill="rgb(153, 153, 153)" x="0" dy="-1.5976056338028168em" opacity="1" text-anchor="start" font-size="12">Criminal mischief</text></g><g class="tick" opacity="1" transform="translate(0,334.99195171026156)" style="visibility: visible;"><line stroke="#eeeeee" x2="0" stroke-dasharray="0"/><text fill="rgb(153, 153, 153)" x="0" dy="-1.5976056338028168em" opacity="1" text-anchor="start" font-size="12">Miscellaneous penal law</text></g><g class="tick" opacity="1" transform="translate(0,275.83702213279673)" style="visibility: visible;"><line stroke="#eeeeee" x2="0" stroke-dasharray="0"/><text fill="rgb(153, 153, 153)" x="0" dy="-1.5976056338028168em" opacity="1" text-anchor="start" font-size="12">Dangerous Drugs</text></g><g class="tick" opacity="1" transform="translate(0,216.68209255533196)" style="visibility: visible;"><line stroke="#eeeeee" x2="0" stroke-dasharray="0"/><text fill="rgb(153, 153, 153)" x="0" dy="-1.5976056338028168em" opacity="1" text-anchor="start" font-size="12">Against public order / sensibility</text></g><g class="tick" opacity="1" transform="translate(0,157.52716297786716)" style="visibility: visible;"><line stroke="#eeeeee" x2="0" stroke-dasharray="0"/><text fill="rgb(153, 153, 153)" x="0" dy="-1.5976056338028168em" opacity="1" text-anchor="start" font-size="12">Assault 3</text></g><g class="tick" opacity="1" transform="translate(0,98.3722334004024)" style="visibility: visible;"><line stroke="#eeeeee" x2="0" stroke-dasharray="0"/><text fill="rgb(153, 153, 153)" x="0" dy="-1.5976056338028168em" opacity="1" text-anchor="start" font-size="12">Harassment 2</text></g><g class="tick" opacity="1" transform="translate(0,39.217303822937595)" style="visibility: visible;"><line stroke="#eeeeee" x2="0" stroke-dasharray="0"/><text fill="rgb(153, 153, 153)" x="0" dy="-1.5976056338028168em" opacity="1" text-anchor="start" font-size="12"/></g></g><g class="x axis" transform="translate(0,420)" fill="none" font-size="10" font-family="sans-serif" text-anchor="middle" style="font-family: &quot;Source Sans Pro&quot;;"><path class="domain" stroke="#eeeeee" d="M0.5,0.5H1015.5" stroke-dasharray="0"/><g class="tick" opacity="1" transform="translate(0.5,0)"><line stroke="#eeeeee" y2="6" stroke-dasharray="0"/><text fill="rgb(153, 153, 153)" y="9" dy="-9" opacity="1" dominant-baseline="central" font-size="12" transform="translate(0, 15) rotate(-44.99999999999999)" dx="5" style="text-anchor: end; visibility: visible;">0</text></g><g class="tick" opacity="1" transform="translate(113.27777862548828, 0)"><line stroke="#eeeeee" y2="6" stroke-dasharray="0"/><text fill="rgb(153, 153, 153)" y="9" dy="-9" opacity="1" dominant-baseline="central" font-size="12" transform="translate(0, 15) rotate(-44.99999999999999)" dx="5" style="text-anchor: end; visibility: visible;">5</text></g><g class="tick" opacity="1" transform="translate(226.05555725097656, 0)"><line stroke="#eeeeee" y2="6" stroke-dasharray="0"/><text fill="rgb(153, 153, 153)" y="9" dy="-9" opacity="1" dominant-baseline="central" font-size="12" transform="translate(0, 15) rotate(-44.99999999999999)" dx="5" style="text-anchor: end; visibility: visible;">10</text></g><g class="tick" opacity="1" transform="translate(338.8333435058594, 0)"><line stroke="#eeeeee" y2="6" stroke-dasharray="0"/><text fill="rgb(153, 153, 153)" y="9" dy="-9" opacity="1" dominant-baseline="central" font-size="12" transform="translate(0, 15) rotate(-44.99999999999999)" dx="5" style="text-anchor: end; visibility: visible;">15</text></g><g class="tick" opacity="1" transform="translate(451.6111145019531, 0)"><line stroke="#eeeeee" y2="6" stroke-dasharray="0"/><text fill="rgb(153, 153, 153)" y="9" dy="-9" opacity="1" dominant-baseline="central" font-size="12" transform="translate(0, 15) rotate(-44.99999999999999)" dx="5" style="text-anchor: end; visibility: visible;">20</text></g><g class="tick" opacity="1" transform="translate(564.388916015625, 0)"><line stroke="#eeeeee" y2="6" stroke-dasharray="0"/><text fill="rgb(153, 153, 153)" y="9" dy="-9" opacity="1" dominant-baseline="central" font-size="12" transform="translate(0, 15) rotate(-44.99999999999999)" dx="5" style="text-anchor: end; visibility: visible;">25</text></g><g class="tick" opacity="1" transform="translate(677.1666870117188, 0)"><line stroke="#eeeeee" y2="6" stroke-dasharray="0"/><text fill="rgb(153, 153, 153)" y="9" dy="-9" opacity="1" dominant-baseline="central" font-size="12" transform="translate(0, 15) rotate(-44.99999999999999)" dx="5" style="text-anchor: end; visibility: visible;">30</text></g><g class="tick" opacity="1" transform="translate(789.9444580078125, 0)"><line stroke="#eeeeee" y2="6" stroke-dasharray="0"/><text fill="rgb(153, 153, 153)" y="9" dy="-9" opacity="1" dominant-baseline="central" font-size="12" transform="translate(0, 15) rotate(-44.99999999999999)" dx="5" style="text-anchor: end; visibility: visible;">35</text></g><g class="tick" opacity="1" transform="translate(902.7222290039062, 0)"><line stroke="#eeeeee" y2="6" stroke-dasharray="0"/><text fill="rgb(153, 153, 153)" y="9" dy="-9" opacity="1" dominant-baseline="central" font-size="12" transform="translate(0, 15) rotate(-44.99999999999999)" dx="5" style="text-anchor: end; visibility: visible;">40</text></g><g class="tick" opacity="1" transform="translate(1015.5, 0)"><line stroke="#eeeeee" y2="6" stroke-dasharray="0"/><text fill="rgb(153, 153, 153)" y="9" dy="-9" opacity="1" dominant-baseline="central" font-size="12" transform="translate(0, 15) rotate(-44.99999999999999)" dx="5" style="text-anchor: end; visibility: visible;">45</text></g></g></g></g></g></g><g class="annotations below"><g class="axis-highlights" transform="translate(10, 0)" style="opacity: 1;"/></g><g id="areas"><g class="series" pointer-events="none"><path class="area" transform="translate(10,0)" fill-opacity="0" fill="#1D6996" clip-path="url(#clip-0-0)" d="M378.93561368209254,203C359.2173038229376,157.88888888888889,339.4989939637827,112.77777777777777,319.78068410462777,112.77777777777777C300.0623742454728,112.77777777777777,280.3440643863179,473.6666666666667,260.62575452716294,473.6666666666667C240.90744466800803,473.6666666666667,221.18913480885308,180.44444444444446,201.47082494969817,180.44444444444446C181.75251509054323,180.44444444444446,162.0342052313883,244.3518518518518,142.31589537223337,293.2222222222222C122.59758551307844,342.09259259259255,102.87927565392351,407.8796296296296,83.16096579476859,473.6666666666667L83.16096579476859,473.6666666666667C102.87927565392351,407.8796296296296,122.59758551307844,342.09259259259255,142.31589537223337,293.2222222222222C162.0342052313883,244.3518518518518,181.75251509054323,180.44444444444446,201.47082494969817,180.44444444444446C221.18913480885308,180.44444444444446,240.90744466800803,473.6666666666667,260.62575452716294,473.6666666666667C280.3440643863179,473.6666666666667,300.0623742454728,112.77777777777777,319.78068410462777,112.77777777777777C339.4989939637827,112.77777777777777,359.2173038229376,157.88888888888889,378.93561368209254,203Z"/></g><g class="series" pointer-events="none"><path class="area" transform="translate(10,0)" fill-opacity="0" fill="#EDAD08" clip-path="url(#clip-0-1)" d="M378.93561368209254,406C359.2173038229376,451.11111111111114,339.4989939637827,496.22222222222223,319.78068410462777,496.22222222222223C300.0623742454728,496.22222222222223,280.3440643863179,496.22222222222223,260.62575452716294,496.22222222222223C240.90744466800803,496.22222222222223,221.18913480885308,518.7777777777778,201.47082494969817,541.3333333333334C181.75251509054323,563.8888888888889,162.0342052313883,571.4074074074074,142.31589537223337,631.5555555555555C122.59758551307844,691.7037037037037,102.87927565392351,842.0740740740741,83.16096579476859,992.4444444444445L83.16096579476859,992.4444444444445C102.87927565392351,842.0740740740741,122.59758551307844,691.7037037037037,142.31589537223337,631.5555555555555C162.0342052313883,571.4074074074074,181.75251509054323,563.8888888888889,201.47082494969817,541.3333333333334C221.18913480885308,518.7777777777778,240.90744466800803,496.22222222222223,260.62575452716294,496.22222222222223C280.3440643863179,496.22222222222223,300.0623742454728,496.22222222222223,319.78068410462777,496.22222222222223C339.4989939637827,496.22222222222223,359.2173038229376,451.11111111111114,378.93561368209254,406Z"/></g></g><g id="lines"><g class="series"><clipPath id="clip-0-0"><rect width="0" y="0" height="420"/></clipPath><path class="line" opacity="1" fill="none" stroke="#1D6996" stroke-width="2" transform="translate(10,0)" clip-path="url(#clip-0-0)" d="M378.93561368209254,203C359.2173038229376,157.88888888888889,339.4989939637827,112.77777777777777,319.78068410462777,112.77777777777777C300.0623742454728,112.77777777777777,280.3440643863179,473.6666666666667,260.62575452716294,473.6666666666667C240.90744466800803,473.6666666666667,221.18913480885308,180.44444444444446,201.47082494969817,180.44444444444446C181.75251509054323,180.44444444444446,162.0342052313883,244.3518518518518,142.31589537223337,293.2222222222222C122.59758551307844,342.09259259259255,102.87927565392351,407.8796296296296,83.16096579476859,473.6666666666667"/><text class="label" font-size="11" alignment-baseline="middle" opacity="0" x="5" fill="#1D6996" transform="translate(93.16096496582031, 473.6666564941406)"/></g><g class="series"><clipPath id="clip-0-1"><rect width="0" y="0" height="420"/></clipPath><path class="line" opacity="1" fill="none" stroke="#EDAD08" stroke-width="2" transform="translate(10,0)" clip-path="url(#clip-0-1)" d="M378.93561368209254,406C359.2173038229376,451.11111111111114,339.4989939637827,496.22222222222223,319.78068410462777,496.22222222222223C300.0623742454728,496.22222222222223,280.3440643863179,496.22222222222223,260.62575452716294,496.22222222222223C240.90744466800803,496.22222222222223,221.18913480885308,518.7777777777778,201.47082494969817,541.3333333333334C181.75251509054323,563.8888888888889,162.0342052313883,571.4074074074074,142.31589537223337,631.5555555555555C122.59758551307844,691.7037037037037,102.87927565392351,842.0740740740741,83.16096579476859,992.4444444444445"/><text class="label" font-size="11" alignment-baseline="middle" opacity="0" x="5" fill="#EDAD08" transform="translate(93.16096496582031, 992.4444580078125)"/></g></g><g id="data-points"><g class="series" transform="translate(10,0)"><path class="data-point" data-type="bar" opacity="0.9" fill="#1D6996" d="M0,378.93561368209254L203,378.93561368209254L203,394.14688128772633L0,394.14688128772633Z" transform="translate(0, 0)" id="point-0-0"/><path class="data-point" data-type="bar" opacity="0.9" fill="#1D6996" d="M0,319.78068410462777L112.77777777777777,319.78068410462777L112.77777777777777,334.99195171026156L0,334.99195171026156Z" transform="translate(0, 0)" id="point-0-1"/><path class="data-point" data-type="bar" opacity="0.9" fill="#1D6996" d="M0,260.62575452716294L473.6666666666667,260.62575452716294L473.6666666666667,275.83702213279673L0,275.83702213279673Z" transform="translate(0, 0)" id="point-0-2"/><path class="data-point" data-type="bar" opacity="0.9" fill="#1D6996" d="M0,201.47082494969817L180.44444444444446,201.47082494969817L180.44444444444446,216.68209255533196L0,216.68209255533196Z" transform="translate(0, 0)" id="point-0-3"/><path class="data-point" data-type="bar" opacity="0.9" fill="#1D6996" d="M0,142.31589537223337L293.2222222222222,142.31589537223337L293.2222222222222,157.52716297786716L0,157.52716297786716Z" transform="translate(0, 0)" id="point-0-4"/><path class="data-point" data-type="bar" opacity="0.9" fill="#1D6996" d="M0,83.16096579476859L473.6666666666667,83.16096579476859L473.6666666666667,98.3722334004024L0,98.3722334004024Z" transform="translate(0, 0)" id="point-0-5"/></g><g class="series" transform="translate(10,0)"><path class="data-point" data-type="bar" opacity="0.9" fill="#EDAD08" d="M0,394.14688128772633L406,394.14688128772633L406,409.3581488933601L0,409.3581488933601Z" transform="translate(0, 0)" id="point-1-0"/><path class="data-point" data-type="bar" opacity="0.9" fill="#EDAD08" d="M0,334.99195171026156L496.22222222222223,334.99195171026156L496.22222222222223,350.20321931589535L0,350.20321931589535Z" transform="translate(0, 0)" id="point-1-1"/><path class="data-point" data-type="bar" opacity="0.9" fill="#EDAD08" d="M0,275.83702213279673L496.22222222222223,275.83702213279673L496.22222222222223,291.0482897384305L0,291.0482897384305Z" transform="translate(0, 0)" id="point-1-2"/><path class="data-point" data-type="bar" opacity="0.9" fill="#EDAD08" d="M0,216.68209255533196L541.3333333333334,216.68209255533196L541.3333333333334,231.89336016096576L0,231.89336016096576Z" transform="translate(0, 0)" id="point-1-3"/><path class="data-point" data-type="bar" opacity="0.9" fill="#EDAD08" d="M0,157.52716297786716L631.5555555555555,157.52716297786716L631.5555555555555,172.73843058350096L0,172.73843058350096Z" transform="translate(0, 0)" id="point-1-4"/><path class="data-point" data-type="bar" opacity="0.9" fill="#EDAD08" d="M0,98.3722334004024L992.4444444444445,98.3722334004024L992.4444444444445,113.5835010060362L0,113.5835010060362Z" transform="translate(0, 0)" id="point-1-5"/></g></g><g id="data-labels"/><g class="annotations above"><g class="axis-highlights" transform="translate(10, 0)" style="opacity: 1;"/></g></svg>